<?xml version="1.0" encoding="UTF-8"?>
<svg xmlns="http://www.w3.org/2000/svg" xmlns:xlink="http://www.w3.org/1999/xlink" viewBox="0 0 704.74 836">
  <defs>
    <style>
      .cls-1 {
        clip-path: url(#clippath);
      }

      .cls-2 {
        fill: none;
      }

      .cls-2, .cls-3, .cls-4, .cls-5 {
        stroke-width: 0px;
      }

      .cls-3 {
        fill: url(#Degradado_Verde);
      }

      .cls-4 {
        fill: url(#Degradado_Naranja);
      }

      .cls-6 {
        mix-blend-mode: multiply;
      }

      .cls-7 {
        clip-path: url(#clippath-1);
      }

      .cls-8 {
        clip-path: url(#clippath-2);
      }

      .cls-5 {
        fill: url(#Degradado_Azul);
      }

      .cls-9 {
        isolation: isolate;
      }
    </style>
    <clipPath id="clippath">
      <path class="cls-2" d="M195.78,574c-.84-.74-1.66-1.48-2.47-2.26-.87-.83-1.87-1.86-2.85-2.91-.79-.84-1.58-1.71-2.37-2.62-1.02-1.17-1.98-2.41-2.94-3.66-.87-1.12-1.36-1.77-1.82-2.45-1.03-1.45-2.06-3.07-3.06-4.71l-1.47-2.49c-.86-1.58-1.66-3.17-2.41-4.77l-.91-1.92c-.72-1.63-1.42-3.44-2.08-5.3l-.75-2.08c-.54-1.68-.97-3.28-1.37-4.88-.36-1.32-.57-2.13-.75-2.95-.25-1.1-.46-2.34-.65-3.57l-.21-1.22c-.17-1.09-.34-2.2-.46-3.28-.1-.82-.18-1.91-.24-3.02-.14-1.93-.24-3.46-.25-4.98l-.04-435.42.07-1.12c-.02-.66.08-2.18.19-3.7.09-1.38.16-2.45.28-3.48.13-1.19.33-2.46.54-3.71.31-1.96.52-3.18.78-4.38.19-.81.39-1.62.62-2.43.54-2.06.98-3.72,1.49-5.34l.66-1.84c.76-2.09,1.46-3.94,2.26-5.73l.69-1.46c.87-1.82,1.67-3.44,2.53-4.98l1.69-2.87c.82-1.35,1.83-2.94,2.93-4.49.38-.56.88-1.21,1.37-1.85,1.34-1.76,2.34-3.04,3.39-4.25.7-.81,1.49-1.68,2.31-2.55.95-1.02,1.95-2.04,2.99-3.04.76-.73,1.71-1.59,2.68-2.44,1.08-.93,2.12-1.81,3.2-2.65.8-.64,1.77-1.35,2.76-2.08,1.17-.84,2.35-1.63,3.54-2.41,1.06-.69,1.99-1.24,2.95-1.78,1.15-.7,2.54-1.44,3.94-2.17l2.52-1.21c1.62-.76,3.16-1.41,4.75-2.04l2.4-.89c1.59-.56,3.27-1.1,5-1.58l2.49-.66c1.64-.4,3.27-.76,4.94-1.06.84-.15,1.71-.28,2.62-.41l1.04-.15c1.32-.18,2.65-.35,3.99-.45,1.03-.09,2.24-.14,3.44-.19,1.45-.09,2.31-.14,3.19-.14l1.59.06c1.45.04,2.7.12,3.94.21,1.5.09,2.5.15,3.47.27,1.26.15,2.51.34,3.76.55,1.83.31,3,.5,4.15.74.95.21,1.98.48,3.01.77,2.02.52,3.45.9,4.86,1.36l2.03.72c2.19.81,3.84,1.43,5.45,2.13l1.77.86c2.11,1.01,3.77,1.84,5.37,2.75l377.48,217.93c1.63.98,3.22,2.01,4.77,3.11l1.37.96c1.6,1.15,3.17,2.43,4.73,3.76l1.5,1.29c1.24,1.1,2.51,2.37,3.73,3.62l1.9,1.94c1.05,1.17,1.8,2.08,2.55,3.01,1.17,1.42,1.93,2.35,2.65,3.31.77,1.04,1.4,1.99,2.03,2.95.99,1.47,1.76,2.65,2.48,3.87l.63.99c.3.51.68,1.25,1.05,2.01.84,1.57,1.44,2.72,1.99,3.9.65,1.39,1.16,2.64,1.68,3.89.59,1.48.93,2.33,1.24,3.21.51,1.45.98,2.94,1.41,4.45.32,1.08.6,2,.83,2.95.39,1.54.72,3.1,1.02,4.67l.5,2.86c.24,1.69.43,3.23.57,4.77.08.86.18,2.1.24,3.33.06,1.28.09,2.6.09,3.93s-.03,2.64-.09,3.96c-.06,1.18-.16,2.43-.28,3.65-.1,1.17-.29,2.71-.51,4.23l-.51,2.95c-.31,1.65-.64,3.21-1.03,4.75-.23.95-.51,1.86-.78,2.8-.49,1.66-.96,3.16-1.48,4.64-.3.84-.64,1.69-.99,2.56-.76,1.87-1.27,3.12-1.85,4.37-.62,1.31-1.22,2.46-1.83,3.62-.6,1.16-.98,1.91-1.41,2.66l-.91,1.43c-.3.54-1.08,1.72-1.86,2.9-.83,1.24-1.46,2.2-2.12,3.11-.83,1.11-1.58,2.02-2.35,2.95-1.15,1.43-1.91,2.34-2.69,3.22l-1.82,1.87c-1.52,1.56-2.81,2.86-4.13,4.04l-1.3,1.1c-1.71,1.45-3.27,2.74-4.92,3.93l-1.31.91c-1.61,1.12-3.23,2.19-4.9,3.2l-.92.55-377.26,217.74c-.79.47-2.45,1.3-4.12,2.1l-2.23,1.07c-1.5.67-3.21,1.29-4.9,1.92l-2.55.92c-1.42.47-2.86.85-4.3,1.22-1.6.43-2.64.71-3.67.93-1.07.23-2.23.42-3.4.62-1.91.31-3.16.51-4.41.66-.99.11-1.98.18-2.98.24-1.97.14-3.45.22-4.93.25l-.74.06-.38-.02c-.88,0-1.73-.05-2.59-.11-1.8-.07-3.02-.12-4.2-.23-1.18-.09-2.51-.25-3.83-.44l-1.07-.15c-.91-.12-1.8-.25-2.7-.42-1.56-.28-3.22-.65-4.85-1.06l-2.42-.62c-1.91-.56-3.54-1.08-5.19-1.66l-2.23-.83c-1.62-.63-3.16-1.28-4.7-2l-2.51-1.21c-1.49-.77-2.88-1.52-4.22-2.32-.77-.44-1.7-1-2.63-1.58-1.32-.87-2.5-1.66-3.65-2.5-1.01-.73-1.98-1.44-2.95-2.21-.91-.72-1.95-1.59-2.99-2.49l-.16-.14M222.32,544.41c.49.42.98.84,1.48,1.24l1.61,1.2c.58.42,1.16.83,1.78,1.21l1.22.74c.88.52,1.58.9,2.29,1.25l1.21.6c.73.33,1.54.68,2.38,1.01l1.06.38c1,.36,1.86.63,2.74.89l.93.22c1.02.27,1.81.44,2.63.59l1.22.19c1.27.18,1.88.27,2.5.32l3.46.18.84-.02c.45,0,1.23-.08,2.02-.13l7.34-1.18c1.06-.28,1.67-.43,2.29-.62l1.41-.54c.71-.25,1.51-.54,2.3-.88l1.27-.63c.81-.38,1.65-.79,2.46-1.24l.87-.48,375.42-216.76c.93-.54,1.8-1.13,2.69-1.74l.86-.59c.65-.48,1.42-1.11,2.18-1.76l.94-.79c.57-.51,1.13-1.1,1.7-1.69l4.37-5.28c.83-1.23,1.18-1.76,1.51-2.3l1.87-3.54c.25-.56.55-1.25.83-1.96l.64-1.62c.29-.77.5-1.51.73-2.26l.4-1.41c.19-.79.36-1.58.51-2.38l.28-1.61c.09-.55.18-1.29.24-2.03l.19-3.87-.15-3.52c-.1-1.1-.19-1.84-.3-2.57l-.27-1.51c-.14-.72-.31-1.51-.5-2.31l-.35-1.23c-.28-.93-.49-1.66-.76-2.39l-.47-1.19c-.47-1.17-.77-1.87-1.09-2.57l-1.67-3.2c-.46-.75-.82-1.27-1.17-1.81l-4.75-5.89c-.62-.63-1.19-1.24-1.84-1.81l-.89-.75c-.76-.65-1.53-1.29-2.34-1.88l-.76-.51c-.83-.58-1.7-1.16-2.63-1.69l-.91-.55L268.88,45.08c-.92-.53-1.76-.94-2.62-1.33l-1-.48c-.93-.44-1.78-.73-2.63-1.03l-.97-.37c-.97-.33-1.58-.47-2.21-.64l-7.71-1.3c-.84-.05-1.62-.12-2.41-.13l-.7-.02-3.1.17c-.79.07-1.39.16-1.99.24l-1.83.28c-.9.15-1.71.34-2.53.55l-1.31.34c-.8.21-1.61.49-2.42.78l-1.18.43c-.81.32-1.62.67-2.44,1.05l-1.21.58c-.62.33-1.32.71-2.01,1.11l-1.55.93c-.48.3-1.07.71-1.66,1.13l-1.42,1.08c-.68.53-1.16.95-1.65,1.37l-1.3,1.18c-.65.61-1.09,1.08-1.53,1.54l-1.2,1.34c-.6.68-1.06,1.28-1.52,1.89l-.84,1.11c-.63.9-1.12,1.71-1.62,2.53l-.58.93c-.51.9-.97,1.85-1.43,2.83l-.44.91c-.34.78-.67,1.67-.99,2.59l-.42,1.1c-.26.75-.44,1.53-.64,2.32l-1.15,6.81c-.09,1.29-.15,2.02-.16,2.74l-.06,1.49.02,432.89c.05,1.31.11,2.03.16,2.75l1.18,7.35c.22.85.43,1.69.7,2.51l.4,1.04c.3.85.63,1.77,1.03,2.67l.45.91c.39.82.85,1.78,1.38,2.72l.41.72c.75,1.16,1.19,1.89,1.69,2.59l.98,1.29c.42.55.91,1.18,1.43,1.78l1.19,1.32c.48.51.92.98,1.39,1.42l1.33,1.23"/>
    </clipPath>
    <linearGradient id="Degradado_Azul" data-name="Degradado Azul" x1="-64.68" y1="716.64" x2="-54.73" y2="716.64" gradientTransform="translate(3651.95 38888.4) scale(53.85 -53.85)" gradientUnits="userSpaceOnUse">
      <stop offset="0" stop-color="#1b75bb"/>
      <stop offset="1" stop-color="#6dcef5"/>
    </linearGradient>
    <clipPath id="clippath-1">
      <path class="cls-2" d="M169.69,767.99c-.17-1.09-.34-2.19-.46-3.28-.1-.81-.18-1.9-.25-3.02-.13-1.95-.23-3.46-.24-4.98l-.04-435.41.07-1.13c-.02-.64.08-2.13.19-3.65.09-1.41.15-2.47.27-3.5.13-1.18.32-2.4.53-3.63.33-2.08.54-3.31.81-4.52.17-.75.38-1.57.61-2.41.54-2.05.98-3.71,1.49-5.33l.66-1.83c.75-2.09,1.45-3.9,2.24-5.68l.71-1.52c.87-1.83,1.68-3.44,2.54-5.01l.94-1.66c.1-.17.45-.72.81-1.25.73-1.22,1.76-2.84,2.87-4.4.38-.57.88-1.21,1.37-1.86,1.32-1.73,2.29-2.97,3.32-4.17.77-.88,1.56-1.75,2.38-2.63.95-1.02,1.95-2.04,2.99-3.03.76-.74,1.71-1.59,2.68-2.43,1.01-.89,2.08-1.8,3.2-2.67.8-.64,1.77-1.35,2.76-2.07,1.25-.9,2.39-1.67,3.54-2.42,1.06-.68,1.99-1.24,2.95-1.78,1.24-.73,2.59-1.45,3.94-2.17l2.52-1.21c1.62-.76,3.16-1.41,4.75-2.03l2.4-.89c1.67-.59,3.31-1.12,5-1.59l2.13-.56c2-.48,3.63-.86,5.3-1.15.84-.14,1.71-.28,2.62-.41l1.04-.14c1.32-.19,2.65-.36,3.99-.46,1.03-.09,2.24-.14,3.44-.19,1.52-.09,2.35-.13,3.19-.13l1.81.07c.81,0,2.2.09,3.72.19,1.5.09,2.5.15,3.47.27,1.26.15,2.51.34,3.76.56,1.83.3,3,.5,4.15.74.85.19,1.77.42,2.71.68,2.32.6,3.75.99,5.16,1.44l2.03.73c2.19.81,3.84,1.43,5.45,2.13l1.82.87c2.06,1,3.72,1.83,5.32,2.73l377.33,217.84c1.68,1,3.31,2.07,4.92,3.2l1.07.74c1.91,1.37,3.47,2.66,5.04,3.99l1.5,1.28c1.33,1.19,2.58,2.44,3.81,3.7l1.82,1.87c1.05,1.16,1.8,2.07,2.55,3,1.17,1.42,1.93,2.35,2.65,3.32.7.95,1.27,1.8,1.83,2.66,1.01,1.48,1.73,2.58,2.37,3.64l.94,1.5c.3.5.68,1.24,1.05,2.01.84,1.57,1.44,2.72,1.99,3.9.65,1.38,1.16,2.63,1.68,3.89.59,1.47.93,2.33,1.24,3.21.51,1.44.98,2.94,1.41,4.44.32,1.08.6,2.01.83,2.96.39,1.57.72,3.11,1.02,4.66l.5,2.87c.24,1.69.43,3.23.57,4.76.08.9.18,2.11.24,3.34.06,1.27.09,2.59.09,3.92s-.03,2.64-.09,3.97c-.06,1.18-.16,2.42-.28,3.64-.1,1.16-.28,2.69-.5,4.22l-.52,2.97c-.31,1.62-.64,3.18-1.02,4.72-.25,1.01-.52,1.9-.79,2.82-.49,1.65-.95,3.14-1.46,4.61-.37,1.01-.75,1.93-1.11,2.86-.65,1.6-1.16,2.85-1.74,4.1-.62,1.32-1.22,2.47-1.83,3.62-.6,1.17-.98,1.92-1.41,2.66l-.91,1.43c-.25.46-.97,1.56-1.71,2.67-1.08,1.63-1.66,2.5-2.27,3.33-.76,1.01-1.44,1.85-2.14,2.7-1.37,1.7-2.16,2.65-2.99,3.56-.61.67-1.17,1.25-1.76,1.82-1.54,1.57-2.81,2.84-4.1,4l-1.3,1.1c-1.71,1.45-3.27,2.74-4.92,3.93l-1.31.91c-1.52,1.07-3.05,2.08-4.62,3.02l-1.19.74-376.87,217.55c-1.47.81-2.99,1.55-4.51,2.3l-1.97.94c-1.85.82-3.5,1.43-5.16,2.04l-2.55.93c-1.42.47-2.86.85-4.3,1.22-1.57.42-2.51.67-3.45.88-1.22.27-2.34.45-3.44.63-2.09.35-3.33.54-4.59.69-.99.12-1.98.19-2.98.24-1.97.14-3.45.23-4.93.26l-.74.06-.38-.02c-.9,0-1.78-.05-2.66-.11-1.33-.05-2.74-.11-4.13-.23-1.37-.11-2.88-.3-4.38-.51l-2.98-.46c-1.9-.35-3.49-.71-5.09-1.09l-2.42-.62c-1.82-.52-3.5-1.08-5.19-1.67l-2.23-.82c-1.62-.63-3.16-1.29-4.7-2l-2.51-1.22c-1.49-.77-2.88-1.51-4.22-2.31-.77-.44-1.7-1.01-2.63-1.59-1.32-.87-2.5-1.66-3.65-2.5-.87-.61-1.84-1.33-2.81-2.09-1.12-.9-2.13-1.74-3.13-2.61l-.04-.04c-.97-.84-1.92-1.7-2.85-2.6-.87-.83-1.87-1.85-2.85-2.91-.79-.84-1.58-1.7-2.37-2.62-.97-1.1-1.96-2.38-2.94-3.65-.87-1.13-1.36-1.78-1.82-2.45-1.02-1.44-2.03-3.04-3.02-4.64l-1.51-2.57c-.86-1.58-1.66-3.17-2.41-4.77l-.91-1.92c-.7-1.57-1.4-3.4-2.06-5.25l-.77-2.13c-.54-1.68-.97-3.27-1.37-4.88-.35-1.24-.55-2.07-.74-2.88-.25-1.16-.47-2.39-.66-3.62l-.21-1.24ZM654.55,566.02l6.62-9.98c.25-.56.55-1.25.83-1.95l.67-1.69c.25-.68.47-1.43.7-2.19l.42-1.47c.17-.71.34-1.51.49-2.33l.28-1.6c.08-.54.18-1.28.24-2.03l.19-3.88-.15-3.55c-.1-1.08-.19-1.8-.3-2.54l-.27-1.51c-.14-.73-.31-1.53-.51-2.34l-.34-1.2c-.28-.92-.49-1.66-.76-2.39l-.47-1.19c-.47-1.17-.77-1.87-1.09-2.56l-1.67-3.19c-.49-.83-.85-1.32-1.18-1.84l-4.74-5.87c-.68-.71-1.28-1.32-1.91-1.89l-.82-.68c-.76-.65-1.53-1.29-2.34-1.88l-.76-.51c-.83-.57-1.7-1.16-2.63-1.69l-.81-.49-375.37-216.7c-.92-.52-1.76-.93-2.62-1.32l-1.19-.6c-.73-.32-1.58-.62-2.43-.93l-.97-.37c-.97-.33-1.58-.47-2.21-.63l-7.71-1.3c-.78-.05-1.51-.11-2.24-.12l-.77-.02-3.2.16c-.79.06-1.39.15-1.99.23l-1.83.28c-.9.16-1.71.36-2.53.56l-1.26.31c-.88.24-1.74.54-2.6.85l-1.06.38c-.81.32-1.62.67-2.44,1.05l-1.21.59c-.67.34-1.41.75-2.12,1.17l-1.44.86c-.52.34-1.14.79-1.78,1.23l-1.3.98c-.64.5-1.09.9-1.54,1.29l-1.41,1.27c-.65.61-1.09,1.07-1.53,1.53l-1.2,1.34c-.55.64-1.04,1.26-1.52,1.89l-.84,1.1c-.62.88-1.1,1.67-1.58,2.48l-.95,1.53c-.18.34-.64,1.3-1.1,2.27l-.44.92c-.33.74-.66,1.66-.99,2.58l-.42,1.11c-.26.75-.44,1.52-.64,2.31l-1.15,6.83c-.09,1.3-.15,2.01-.16,2.72l-.06,1.49.02,432.9c.05,1.3.11,2.01.16,2.74l1.16,7.3c.24.91.45,1.74.72,2.56l.44,1.15c.24.7.57,1.61.97,2.5l.47.97c.39.82.85,1.77,1.38,2.71l.41.73c.73,1.13,1.18,1.87,1.69,2.58l.98,1.3c.4.52.86,1.12,1.35,1.69l1.27,1.41c.48.51.92.98,1.39,1.41l1.49,1.37,2.93,2.34c.73.51,1.31.92,1.93,1.3l1.22.75c.88.51,1.58.9,2.29,1.24l1.21.6c.73.33,1.54.68,2.38,1.01l1.06.38c.96.36,1.77.62,2.6.85l1.07.27c1.07.27,1.91.45,2.78.62l.96.13c1.23.18,1.92.29,2.62.34.79.06,1.43.08,2.06.1l1.42.08.82-.02c.45,0,1.23-.08,2.02-.12l7.34-1.18c1.06-.28,1.67-.43,2.29-.63l1.41-.53c.75-.28,1.6-.57,2.42-.94l.91-.45c1.02-.49,1.83-.87,2.6-1.3l.98-.54,375.42-216.77c.93-.54,1.8-1.13,2.69-1.74l.86-.58c.65-.48,1.42-1.12,2.18-1.77l.94-.79c.6-.52,1.17-1.14,1.78-1.75l1.06-1.08Z"/>
    </clipPath>
    <linearGradient id="Degradado_Naranja" data-name="Degradado Naranja" x1="-64.68" y1="712.6" x2="-54.73" y2="712.6" gradientTransform="translate(3651.95 38912.69) scale(53.85 -53.85)" gradientUnits="userSpaceOnUse">
      <stop offset="0" stop-color="#ed9426"/>
      <stop offset="1" stop-color="#f9ec31"/>
    </linearGradient>
    <clipPath id="clippath-2">
      <path class="cls-2" d="M18.37,367.1c.79-.97,1.58-1.93,2.42-2.85l1.72-1.78c1.5-1.54,2.74-2.78,4.05-3.96l1.44-1.23c1.65-1.4,3.22-2.69,4.86-3.88l1.31-.9c1.78-1.25,3.58-2.42,5.43-3.5l377.45-217.89c1.03-.59,2.67-1.4,4.32-2.2,1-.49,1.67-.81,2.35-1.1,1.47-.65,3.13-1.27,4.78-1.87,1.13-.43,1.83-.7,2.54-.93,1.4-.46,2.83-.84,4.24-1.2,1.69-.46,2.73-.73,3.78-.95.98-.21,2.15-.41,3.33-.6,1.88-.32,3.17-.53,4.46-.67.98-.12,1.97-.19,2.99-.25,1.67-.11,3.01-.19,4.29-.23l1.72-.06c.88,0,1.73.05,2.59.11,1.8.08,3.02.12,4.2.23,1.18.09,2.51.26,3.83.44l1.13.16c.88.12,1.74.26,2.62.42,1.56.28,3.22.65,4.85,1.05.85.2,1.76.44,2.7.71,1.48.42,3.15.96,4.79,1.53l2.36.87c1.66.66,3.22,1.32,4.74,2.03l2.36,1.13c1.55.81,2.9,1.54,4.22,2.3.97.58,1.92,1.13,2.83,1.72,1.18.77,2.37,1.58,3.55,2.44,1.01.72,1.99,1.44,2.96,2.21.99.79,2.03,1.66,3.07,2.56.95.84,1.89,1.68,2.8,2.57.9.85,1.83,1.81,2.77,2.8,1.1,1.19,1.79,1.94,2.46,2.73,1.06,1.23,2.01,2.43,2.94,3.65.87,1.13,1.36,1.77,1.82,2.45,1.04,1.48,2.02,3.04,3,4.61.19.29.57.88.92,1.49l.63,1.16c.64,1.09,1.56,2.93,2.44,4.8.27.54.59,1.17.87,1.82.72,1.63,1.42,3.45,2.08,5.31l.74,2.08c.52,1.6.96,3.26,1.38,4.92.34,1.22.56,2.06.75,2.91.23,1.1.42,2.13.58,3.19l.27,1.6c.17,1.04.32,2.06.45,3.12.13,1.12.19,2.13.25,3.14.16,2.21.25,3.62.26,5.03l.04,435.51-.05.74c-.03,1.29-.11,2.48-.2,3.67-.11,1.81-.17,2.82-.29,3.81-.14,1.17-.29,2.2-.46,3.24l-.27,1.61c-.16,1.03-.34,2.04-.55,3.07-.21.91-.41,1.64-.6,2.38l-.29,1.12c-.4,1.49-.8,2.99-1.27,4.43l-.61,1.72c-.8,2.21-1.5,4.07-2.3,5.85l-.82,1.72c-.84,1.77-1.76,3.62-2.79,5.43-.57,1.02-.92,1.58-1.28,2.13-.87,1.41-1.84,2.95-2.88,4.42-.45.66-.95,1.31-1.44,1.95-1.32,1.74-2.3,2.98-3.31,4.15-.66.77-1.34,1.52-2.04,2.27-1.34,1.43-2.28,2.4-3.25,3.32-.85.82-1.8,1.68-2.77,2.53-1.01.88-1.99,1.7-2.98,2.49-1.15.91-2.14,1.63-3.13,2.34-1.07.77-2.25,1.57-3.48,2.36-.86.57-1.81,1.13-2.75,1.68-1.26.75-2.65,1.49-4.05,2.23l-2.63,1.26c-1.45.67-3.01,1.33-4.58,1.96l-2.47.91c-1.54.56-3.26,1.1-5,1.59l-2.24.58c-1.89.47-3.53.83-5.22,1.13-.74.13-1.6.27-2.48.4-2.09.3-3.59.48-5.13.61-1.23.11-2.64.16-4.04.2-.81.07-1.69.12-2.59.12l-1.59-.06c-1.45-.04-2.7-.11-3.94-.2-1.49-.09-2.49-.16-3.47-.27-1.28-.15-2.57-.35-3.84-.58-1.88-.29-3.02-.49-4.11-.72-1.02-.23-1.96-.48-2.92-.74-2.11-.56-3.53-.94-4.92-1.39-.73-.23-1.42-.49-2.12-.76-2.09-.77-3.74-1.38-5.36-2.09l-1.84-.88c-2.02-.98-3.66-1.79-5.26-2.69L39.1,487c-1.7-1.02-3.31-2.07-4.91-3.21l-1.38-.95c-1.59-1.15-3.16-2.44-4.72-3.77l-1.51-1.28c-1.19-1.06-2.38-2.25-3.54-3.44l-2.08-2.13c-.89-.97-1.65-1.89-2.41-2.82l-.98-1.19c-.65-.8-1.29-1.6-1.91-2.44-.59-.82-1.15-1.63-1.72-2.48l-.67-1.02c-.67-1.01-1.33-2.01-1.97-3.07l-.68-1.09c-.38-.69-.73-1.36-1.07-2.06-.82-1.54-1.42-2.69-1.97-3.87-.61-1.28-1.14-2.58-1.68-3.89-.5-1.27-.89-2.19-1.21-3.13-.57-1.61-1.06-3.14-1.49-4.68-.27-.93-.55-1.85-.78-2.8-.37-1.44-.71-3.05-1.02-4.67-.18-.91-.37-2.01-.53-3.1-.21-1.29-.38-2.82-.53-4.35-.11-1.11-.18-2.2-.25-3.28-.08-1.57-.1-2.95-.09-4.34,0-1.02,0-2.4.08-3.78.08-1.26.15-2.35.26-3.42.15-1.57.32-3.1.56-4.62.13-.86.32-1.95.54-3.04.27-1.44.6-3.02,1.01-4.61.2-.83.48-1.75.75-2.69.45-1.56.94-3.11,1.48-4.64.3-.84.64-1.69.99-2.56.78-1.91,1.31-3.22,1.93-4.51.54-1.17,1.14-2.32,1.75-3.47.55-1.08.9-1.77,1.27-2.45l1.05-1.66c.25-.44.93-1.48,1.62-2.53l.79-1.17c.52-.78,1.05-1.54,1.57-2.28.66-.9,1.36-1.76,2.06-2.62M60.41,453.42l375.2,216.62c1.14.62,2,1.05,2.88,1.45l.99.5c.94.43,1.79.72,2.64,1.03l.94.35c.96.33,1.56.48,2.16.63l7.78,1.31c.85.06,1.62.13,2.41.14l.69.02.94-.07c.92-.03,1.56-.05,2.18-.1.87-.07,1.55-.17,2.25-.27l1.52-.24c.97-.16,1.77-.35,2.58-.55l1.24-.32c.84-.24,1.64-.5,2.43-.78l1.24-.45c.75-.29,1.56-.64,2.37-1.03l1.39-.67c.51-.26,1.21-.64,1.9-1.05l1.43-.87c.65-.41,1.2-.8,1.77-1.2l4.39-3.63c.61-.58,1.11-1.11,1.61-1.64l1.13-1.23c.53-.62,1.03-1.26,1.51-1.9l.84-1.1c.6-.86,1.14-1.73,1.68-2.62l.52-.84c.49-.86.94-1.78,1.37-2.73l.52-1.06c.32-.72.65-1.62.97-2.53l.34-.94c.3-.85.47-1.55.66-2.26l1.23-7.54c.08-1.06.14-1.65.14-2.25l.04-1.14-.04-434.01c0-.42-.06-1.02-.1-1.61l-1.19-7.64c-.23-.9-.41-1.68-.67-2.44l-.44-1.17c-.3-.85-.63-1.77-1.03-2.66-.87-1.8-1.31-2.73-1.83-3.62l-.47-.77c-.58-.96-1.11-1.81-1.7-2.64l-.91-1.2c-.45-.58-.97-1.23-1.5-1.87l-.96-1.06c-.62-.65-1.12-1.18-1.65-1.69l-1.49-1.34c-.48-.43-.97-.84-1.47-1.23l-1.52-1.13c-.55-.4-1.1-.79-1.7-1.16l-1.4-.85c-.68-.41-1.42-.82-2.18-1.19l-1.11-.53c-.89-.42-1.7-.77-2.54-1.08l-1-.37c-.87-.3-1.71-.58-2.57-.83l-1.22-.32c-.9-.22-1.69-.4-2.51-.55l-1.19-.19c-1.29-.17-1.9-.26-2.52-.31l-3.4-.17h-.2c-1.26.03-1.99.08-2.72.13l-7.34,1.18c-1.1.29-1.71.44-2.3.62l-1.31.51c-.84.3-1.69.61-2.51.98l-1.15.56c-.83.39-1.68.82-2.52,1.28l-1.09.58L59.94,383.14c-1.14.68-2.05,1.27-2.94,1.9l-.86.58c-.65.48-1.42,1.11-2.18,1.77l-.85.7c-.61.54-1.2,1.16-1.79,1.77l-6.78,9.24-.98,1.89c-.31.66-.57,1.29-.83,1.95l-.64,1.63c-.27.72-.48,1.4-.68,2.09l-.45,1.58c-.22.86-.37,1.61-.51,2.37l-.25,1.37c-.15.96-.23,1.7-.3,2.45l-.13,1.81c-.02.46-.04,1.08-.03,1.7,0,1.01,0,1.62.04,2.26l.12,1.68c.07.69.15,1.44.27,2.17l.24,1.42c.18.93.32,1.67.51,2.41l.39,1.39c.31,1.04.52,1.74.78,2.44l.52,1.34c.38.92.64,1.56.94,2.21l7.67,11.06c.73.75,1.25,1.3,1.83,1.8l.84.71c.82.7,1.59,1.33,2.4,1.93l.76.5c.83.59,1.73,1.18,2.67,1.73l.68.41Z"/>
    </clipPath>
    <linearGradient id="Degradado_Verde" data-name="Degradado Verde" x1="-76.71" y1="717.39" x2="-66.75" y2="717.39" gradientTransform="translate(-3594.8 -38213.72) rotate(-180) scale(53.85 -53.85)" gradientUnits="userSpaceOnUse">
      <stop offset="0" stop-color="#00a69c"/>
      <stop offset="1" stop-color="#8bc53f"/>
    </linearGradient>
  </defs>
  <g class="cls-9">
    <g id="Camada_1" data-name="Camada 1">
      <g>
        <g class="cls-6">
          <g class="cls-1">
            <rect class="cls-5" x="168.7" y="0" width="536.03" height="594.22"/>
          </g>
        </g>
        <g class="cls-6">
          <g class="cls-7">
            <rect class="cls-4" x="168.7" y="241.78" width="536.03" height="594.22"/>
          </g>
        </g>
        <g class="cls-6">
          <g class="cls-8">
            <rect class="cls-3" y="121.04" width="536.05" height="594.2"/>
          </g>
        </g>
      </g>
    </g>
  </g>
</svg>